<svg aria-hidden="true" style="position: absolute; width: 0; height: 0; overflow: hidden;" version="1.1"
    xmlns="http://www.w3.org/2000/svg"
    xmlns:xlink="http://www.w3.org/1999/xlink">
    <defs>
        <symbol id="icon-instagram" viewBox="0 0 32 32">
            <path d="M31.96 9.4c-0.080-1.7-0.36-2.88-0.74-3.88-0.42-1.080-1.040-2.040-1.86-2.84-0.8-0.82-1.76-1.44-2.82-1.84-1.020-0.4-2.18-0.68-3.88-0.76-1.72-0.080-2.26-0.1-6.62-0.1-4.34 0-4.88 0.020-6.58 0.1s-2.88 0.36-3.88 0.74c-1.080 0.42-2.040 1.040-2.84 1.86-0.82 0.8-1.44 1.76-1.84 2.82-0.4 1.020-0.68 2.2-0.76 3.9s-0.1 2.24-0.1 6.6c0 4.34 0.020 4.88 0.1 6.58s0.36 2.88 0.74 3.9c0.42 1.060 1.040 2.020 1.86 2.82 0.8 0.82 1.76 1.46 2.82 1.86 1.020 0.38 2.18 0.66 3.88 0.74 1.72 0.080 2.26 0.080 6.6 0.080s4.9 0 6.6-0.080c1.7-0.080 2.86-0.36 3.88-0.74 2.157-0.849 3.831-2.523 4.661-4.625l0.019-0.055c0.4-1.020 0.68-2.2 0.74-3.9 0.080-1.7 0.1-2.24 0.1-6.58 0-4.36 0-4.9-0.080-6.6zM29.080 22.46c-0.080 1.56-0.34 2.4-0.56 2.98-0.54 1.38-1.64 2.5-3.040 3.040-0.56 0.2-1.4 0.48-2.96 0.54-1.68 0.080-2.2 0.1-6.46 0.1-4.28 0-4.78-0.020-6.46-0.1-1.58-0.060-2.42-0.34-2.98-0.54-0.7-0.26-1.32-0.68-1.84-1.2s-0.94-1.14-1.18-1.84c-0.22-0.56-0.5-1.42-0.56-2.98-0.080-1.68-0.1-2.18-0.1-6.46 0-4.26 0.020-4.78 0.1-6.46 0.060-1.56 0.34-2.4 0.56-2.96 0.24-0.7 0.66-1.34 1.2-1.84 0.5-0.54 1.14-0.94 1.82-1.2 0.58-0.22 1.42-0.48 2.98-0.54 1.68-0.080 2.2-0.1 6.46-0.1 4.28 0 4.78 0.020 6.46 0.1 1.56 0.060 2.42 0.32 2.98 0.54 0.68 0.26 1.32 0.66 1.84 1.2 0.52 0.52 0.94 1.14 1.18 1.84 0.22 0.56 0.48 1.4 0.56 2.96 0.080 1.68 0.1 2.2 0.1 6.46 0 4.28-0.020 4.78-0.1 6.46z"></path>
            <path d="M16.040 7.78c-4.52 0-8.22 3.68-8.22 8.22s3.68 8.22 8.22 8.22 8.22-3.68 8.22-8.22c0-4.54-3.68-8.22-8.22-8.22v0zM16.040 21.32c-2.94 0-5.32-2.38-5.32-5.32 0-2.96 2.38-5.34 5.32-5.34 2.96 0 5.34 2.38 5.34 5.34 0 2.94-2.38 5.32-5.34 5.32zM26.52 7.44c0 1.060-0.86 1.92-1.92 1.92s-1.92-0.86-1.92-1.92v0c0-1.060 0.86-1.92 1.92-1.92s1.92 0.86 1.92 1.92v0z"></path>
        </symbol>
        <symbol id="icon-linkedin" viewBox="0 0 32 32">
            <path d="M31.98 32v-0.020h0.020v-11.72c0-5.74-1.24-10.18-7.96-10.18-3.22 0-5.38 1.78-6.28 3.46h-0.080v-2.92h-6.38v21.36h6.64v-10.56c0-2.8 0.52-5.48 3.98-5.48 3.4 0 3.44 3.18 3.44 5.64v10.42h6.62zM0.52 10.62h6.64v21.36h-6.64v-21.36zM3.84-0.020c-2.12 0-3.84 1.74-3.84 3.86s1.72 3.88 3.84 3.88 3.84-1.76 3.84-3.88-1.72-3.86-3.84-3.86z"></path>
        </symbol>
        <symbol id="icon-oclock" viewBox="0 0 31 32">
            <path d="M30.295 15.3c-0.005-8.455-6.855-15.305-15.31-15.3-8.45 0-15.3 6.855-15.3 15.305 0 6.66 4.305 12.55 10.65 14.575 0.060 0.020 0.125 0.030 0.185 0.030 0.12 0 0.24-0.030 0.345-0.095 0.135-0.080 0.235-0.205 0.28-0.355l3.865-12.25c1.053-0.004 1.905-0.858 1.905-1.912 0-0.005-0-0.009-0-0.014v0.001c-0.006-1.051-0.859-1.9-1.911-1.9-0.005 0-0.010 0-0.015 0h0.001c-0.28 0-0.565 0.065-0.82 0.19l-5.105-5.105c-0.25-0.245-0.655-0.24-0.9 0.015-0.24 0.245-0.24 0.64 0 0.885l5.105 5.11c-0.395 0.8-0.17 1.765 0.535 2.31l-3.685 11.67c-7.275-2.68-11.005-10.755-8.32-18.030 2.68-7.28 10.75-11.005 18.030-8.325s11.005 10.755 8.325 18.035c-1.346 3.58-4.006 6.404-7.377 7.934l-0.088 0.036-0.395-1.875c-0.075-0.34-0.415-0.565-0.76-0.49-0.105 0.025-0.205 0.075-0.29 0.15l-3.835 3.425c-0.133 0.117-0.216 0.287-0.216 0.477 0 0.163 0.061 0.311 0.162 0.423l-0.001-0.001c0.075 0.085 0.175 0.15 0.285 0.185l4.9 1.56c0.059 0.020 0.126 0.031 0.197 0.031 0.35 0 0.634-0.284 0.634-0.634 0-0.049-0.006-0.096-0.016-0.142l0.001 0.004-0.39-1.835c5.529-2.377 9.33-7.777 9.33-14.064 0-0.009 0-0.018-0-0.027v0.001zM14.99 14.66c0.35 0 0.635 0.285 0.635 0.64 0 0.35-0.285 0.635-0.635 0.635-0.352 0-0.637-0.285-0.637-0.637s0.285-0.637 0.637-0.637v0zM17.090 29.525l2.185-1.95 0.6 2.84-2.785-0.89z"></path>
        </symbol>
        <symbol id="icon-laptop" viewBox="0 0 32 32">
            <path fill="#4d5ae5" style="fill: var(--color1, #4d5ae5)" d="M14.925 14.96h1.065v4.8h-1.065v-4.8zM19.185 17.095h1.070v2.665h-1.070v-2.665zM10.66 18.695h1.065v1.065h-1.065v-1.065zM7.46 18.16h1.065v1.6h-1.065v-1.6z"></path>
            <path fill="#2e2f42" style="fill: var(--color2, #2e2f42)" d="M1.595 28.29h25.59c0.881-0.003 1.595-0.718 1.595-1.6 0 0 0 0 0 0v0-2.135c0-0.88-0.715-1.595-1.595-1.595h-0.535v-13.295l3.030-2.87c0.7 0.35 1.55 0.135 2.010-0.495 0.46-0.635 0.395-1.51-0.15-2.070-0.293-0.299-0.7-0.484-1.151-0.484-0.342 0-0.658 0.106-0.919 0.288l0.005-0.003c-0.422 0.295-0.695 0.779-0.695 1.326 0 0.246 0.055 0.48 0.154 0.689l-0.004-0.010-2.28 2.16v-1.23c0-0.88-0.715-1.6-1.6-1.6h-21.32c-0.885 0-1.6 0.72-1.6 1.6v15.995h-0.535c-0.88 0-1.595 0.715-1.595 1.595v2.135c0 0 0 0 0 0 0 0.882 0.714 1.597 1.595 1.6h0zM30.38 4.835c0.295 0 0.535 0.24 0.535 0.53 0 0.295-0.24 0.535-0.535 0.535s-0.53-0.24-0.53-0.535c0-0.29 0.235-0.53 0.53-0.53zM3.195 6.965c0-0.295 0.24-0.53 0.535-0.53h21.32c0.295 0 0.535 0.235 0.535 0.53v2.24l-1.065 1.015v-2.19c0-0.29-0.24-0.53-0.535-0.53h-19.19c-0.295 0-0.535 0.24-0.535 0.53v13.33c0 0.295 0.24 0.53 0.535 0.53h19.19c0.295 0 0.535-0.235 0.535-0.53v-9.675l1.065-1.010v12.285h-22.39v-15.995zM7.995 13.895c-0.725 0-1.355 0.48-1.55 1.175-0.19 0.695 0.105 1.43 0.725 1.8s1.41 0.275 1.93-0.225l1.855 0.93c0.215 0.105 0.475 0.055 0.635-0.125l3.94-4.43 3.87 2.9c0.21 0.155 0.5 0.14 0.685-0.040l3.365-3.185v8.13h-18.12v-12.26h18.12v2.66l-3.77 3.57-3.905-2.925c-0.22-0.165-0.535-0.135-0.715 0.070l-3.995 4.495-1.495-0.745c0.015-0.065 0.020-0.13 0.020-0.195 0-0.885-0.715-1.6-1.595-1.6zM8.525 15.495c0 0.295-0.235 0.535-0.53 0.535-0.286-0.013-0.512-0.247-0.512-0.535s0.227-0.522 0.511-0.535l0.001-0c0.295 0 0.53 0.24 0.53 0.535zM11.725 24.025h5.33v0.53c0 0.295-0.24 0.535-0.535 0.535h-4.26c-0.295 0-0.535-0.24-0.535-0.535v-0.53zM1.065 24.555c0-0.29 0.235-0.53 0.53-0.53h9.065v0.53c0 0.885 0.715 1.6 1.6 1.6h4.26c0.885 0 1.6-0.715 1.6-1.6v-0.53h9.065c0.295 0 0.53 0.24 0.53 0.53v2.135c0 0.295-0.235 0.53-0.53 0.53h-25.59c-0.295 0-0.53-0.235-0.53-0.53v-2.135z"></path>
        </symbol>
        <symbol id="icon-cosmonaut" viewBox="0 0 32 32">
            <path fill="#4d5ae5" style="fill: var(--color1, #4d5ae5)" d="M31.97 4.52c-0.060-0.19-0.23-0.33-0.43-0.36l-1.91-0.28-0.855-1.73c-0.18-0.365-0.775-0.365-0.955 0l-0.855 1.73-1.91 0.28c-0.26 0.039-0.457 0.26-0.457 0.528 0 0.15 0.062 0.285 0.162 0.382l0 0 1.38 1.345-0.325 1.905c-0.035 0.2 0.050 0.4 0.21 0.52 0.165 0.12 0.385 0.135 0.565 0.040l1.705-0.895 1.71 0.895c0.080 0.040 0.165 0.065 0.25 0.065 0.11 0 0.22-0.035 0.315-0.105 0.165-0.12 0.245-0.32 0.21-0.52l-0.325-1.905 1.38-1.345c0.145-0.145 0.2-0.355 0.135-0.55zM29.51 5.85c-0.125 0.12-0.185 0.3-0.155 0.47l0.19 1.115-1-0.525c-0.075-0.040-0.16-0.060-0.25-0.060-0.085 0-0.17 0.020-0.245 0.060l-1 0.525 0.19-1.115c0.030-0.17-0.030-0.35-0.155-0.47l-0.81-0.79 1.12-0.165c0.175-0.025 0.325-0.135 0.4-0.29l0.5-1.015 0.5 1.015c0.080 0.155 0.23 0.265 0.405 0.29l1.12 0.165-0.81 0.79z"></path>
            <path fill="#4d5ae5" style="fill: var(--color1, #4d5ae5)" d="M25.065 20.52h1.065v1.065h-1.065v-1.065zM25.065 22.655h1.065v1.065h-1.065v-1.065zM26.13 21.585h1.070v1.070h-1.070v-1.070zM24 21.585h1.065v1.070h-1.065v-1.070zM21.33 26.385h1.070v1.070h-1.070v-1.070zM21.33 28.52h1.070v1.065h-1.070v-1.065zM22.4 27.455h1.065v1.065h-1.065v-1.065z"></path>
            <path fill="#4d5ae5" style="fill: var(--color1, #4d5ae5)" d="M20.265 27.455h1.065v1.065h-1.065v-1.065zM14.93 24.255h1.070v1.065h-1.070v-1.065zM14.93 26.385h1.070v1.070h-1.070v-1.070zM16 25.32h1.065v1.065h-1.065v-1.065zM13.865 25.32h1.065v1.065h-1.065v-1.065zM4.795 6.12h1.070v1.065h-1.070v-1.065zM4.795 8.255h1.070v1.065h-1.070v-1.065zM5.865 7.185h1.065v1.070h-1.065v-1.070zM3.73 7.185h1.065v1.070h-1.065v-1.070z"></path>
            <path fill="#2e2f42" style="fill: var(--color2, #2e2f42)" d="M24.71 14.155c-0.28-0.375-0.697-0.635-1.175-0.704l-0.010-0.001c-0.074-0.011-0.16-0.017-0.247-0.017-0.413 0-0.794 0.14-1.097 0.375l0.004-0.003-1.255 0.96-1.895 1.415-1.36-0.54c2.425-1.085 4.115-3.51 4.115-6.32 0-3.82-3.125-6.935-6.96-6.935-3.84 0-6.96 3.115-6.96 6.935 0 1.385 0.41 2.675 1.12 3.76l-2.77-0.025c-0.010 0-0.015 0.005-0.025 0.005-0.050 0-0.105 0.015-0.155 0.030-0.010 0.005-0.025 0.010-0.040 0.015-0.005 0-0.010 0-0.015 0.005l-3.235 1.595-1.895 0.915c-0.020 0.005-0.040 0.020-0.065 0.035-0.48 0.324-0.791 0.866-0.791 1.48 0 0.794 0.52 1.467 1.239 1.696l0.013 0.003c0.18 0.060 0.36 0.085 0.54 0.085 0.29 0 0.575-0.070 0.84-0.21l1.385-0.74 2.265-1.17 1.355-0.005-6.78 6.75c-0.302 0.301-0.489 0.717-0.489 1.177s0.187 0.877 0.489 1.177l0 0c0.325 0.325 0.75 0.485 1.18 0.485 0.425 0 0.855-0.16 1.18-0.485l1.315-1.31 1.74-1.3 0.9 0.9-1.76 1.755h-0.005l-1.335 1.33c-0.303 0.298-0.49 0.712-0.49 1.169 0 0.004 0 0.008 0 0.011v-0.001c0 0.445 0.17 0.865 0.49 1.18 0.303 0.3 0.72 0.485 1.18 0.485s0.877-0.185 1.18-0.485l-0 0 4.49-4.47-0.005-0.005c0.010-0.005 0.020-0.005 0.025-0.015l5.165-5.655 3.47 0.49c0.025 0.005 0.050 0.005 0.075 0.005 0.065 0 0.13-0.015 0.19-0.035 0.015-0.010 0.030-0.015 0.050-0.025 0.015-0.010 0.040-0.015 0.055-0.025l3.215-2.135c0.010-0.010 0.015-0.020 0.030-0.030 0.010-0.010 0.025-0.015 0.040-0.025l1.27-1.19c0.347-0.326 0.564-0.787 0.564-1.3 0-0.402-0.133-0.772-0.357-1.070l0.003 0.005zM2.13 17.77c-0.098 0.053-0.215 0.084-0.339 0.084-0.28 0-0.523-0.158-0.644-0.39l-0.002-0.004c-0.165-0.31-0.070-0.695 0.21-0.9l1.315-0.63 0.315 0.92 0.135 0.39-0.99 0.53zM5.625 15.94l-1.55 0.8-0.255-0.745-0.18-0.54 2.025-1-0.040 1.485zM20.725 9.32c0 0.92-0.22 1.785-0.6 2.56l-4.18-1.9c-0.044-0.576-0.343-1.075-0.784-1.386l-0.006-0.004 1.465-4.86c2.38 0.76 4.105 2.975 4.105 5.59zM8.935 9.32c0-3.235 2.645-5.865 5.895-5.865 0.255 0 0.5 0.020 0.745 0.050l-1.43 4.755c-0.020 0-0.040-0.005-0.060-0.005-1.030 0-1.87 0.835-1.87 1.865s0.84 1.865 1.87 1.865c0.695 0 1.295-0.38 1.62-0.945l3.86 1.755c-1.075 1.45-2.795 2.39-4.735 2.39-3.25 0-5.895-2.63-5.895-5.865zM14.89 10.12c0 0.44-0.36 0.8-0.805 0.8s-0.805-0.36-0.805-0.8c0-0.44 0.36-0.8 0.805-0.8s0.805 0.36 0.805 0.8zM2.46 25.145c-0.109 0.108-0.259 0.174-0.425 0.174-0.332 0-0.602-0.268-0.605-0.599v-0c0-0.16 0.065-0.305 0.18-0.42l0.96-0.96 0.85 0.85-0.96 0.955zM5.675 28.875c-0.235 0.235-0.62 0.235-0.855 0.005-0.107-0.11-0.174-0.259-0.175-0.425v-0c0-0.16 0.065-0.31 0.175-0.42l0.965-0.96 0.4 0.4 0.45 0.445-0.96 0.955zM9.16 25.41h-0.005l-1.765 1.76-0.85-0.85 1.765-1.755c0.040-0.040 0.065-0.090 0.090-0.135 0.005-0.015 0.020-0.025 0.025-0.040 0.015-0.040 0.020-0.085 0.025-0.13 0.005-0.025 0.015-0.045 0.015-0.070 0-0.035-0.015-0.070-0.020-0.105s-0.005-0.065-0.020-0.1c-0.020-0.050-0.055-0.090-0.090-0.135-0.010-0.010-0.015-0.025-0.025-0.040l-1.61-1.6c-0.015-0.015-0.040-0.025-0.055-0.040-0.025-0.018-0.055-0.036-0.085-0.053l-0.005-0.002c-0.030-0.015-0.060-0.025-0.090-0.035-0.035-0.010-0.070-0.015-0.105-0.020-0.035 0-0.065 0.005-0.095 0.005-0.035 0.005-0.070 0.010-0.105 0.020s-0.065 0.030-0.095 0.045c-0.020 0.015-0.040 0.015-0.060 0.030l-1.775 1.325-0.9-0.9 2.4-2.385 4.36 4.29-0.925 0.92zM15.975 18.39c-0.015 0-0.030 0.005-0.045 0.005-0.040-0.005-0.075 0-0.115 0.005-0.030 0.005-0.060 0.010-0.085 0.025-0.035 0.010-0.065 0.025-0.1 0.045-0.030 0.020-0.055 0.035-0.080 0.060-0.015 0.010-0.030 0.015-0.040 0.030l-4.7 5.145-4.33-4.255 2.835-2.82c0.21-0.205 0.21-0.545 0-0.755-0.105-0.105-0.24-0.155-0.38-0.155l-2.22 0.015 0.030-1.61 3.105 0.025c1.265 1.295 3.030 2.105 4.98 2.105 0.435 0 0.865-0.045 1.28-0.125 0.040 0.030 0.080 0.065 0.13 0.085l2.41 0.96 0.15 0.76 0.18 0.885-3.005-0.43zM20.020 18.57l-0.315-1.56 1.445-1.080 0.38 0.505 0.57 0.755-2.080 1.38zM23.77 15.74l-0.835 0.785-0.935-1.235 0.835-0.64c0.155-0.12 0.35-0.17 0.54-0.145 0.195 0.030 0.365 0.13 0.48 0.285 0.22 0.295 0.18 0.7-0.085 0.95z"></path>
            <path fill="#2e2f42" style="fill: var(--color2, #2e2f42)" d="M13.6 18.54l-2.145-2.13c-0.095-0.097-0.228-0.158-0.375-0.158s-0.28 0.060-0.375 0.157l-0 0-2.145 2.13c-0.096 0.098-0.156 0.232-0.156 0.38s0.059 0.282 0.156 0.38l-0-0 2.145 2.13c0.105 0.105 0.24 0.155 0.375 0.155s0.275-0.050 0.375-0.155l2.145-2.13c0.096-0.098 0.156-0.232 0.156-0.38s-0.059-0.282-0.156-0.38l0 0zM11.080 20.3l-1.385-1.38 1.385-1.38 1.39 1.38-1.39 1.38zM17.16 5.070l-0.255 1.035c0.070 0.015 1.735 0.45 1.735 2.15h1.070c0-2.020-1.665-2.97-2.55-3.185z"></path>
            <path fill="#2e2f42" style="fill: var(--color2, #2e2f42)" d="M18.64 9.32h1.070v1.065h-1.070v-1.065z"></path>
        </symbol>
        <symbol id="icon-twitter" viewBox="0 0 39 32">
            <path d="M39.385 2.535c-1.477 0.64-3.028 1.083-4.652 1.28 1.674-0.985 2.929-2.56 3.545-4.455-1.575 0.935-3.298 1.575-5.12 1.945-1.477-1.575-3.594-2.56-5.908-2.56-4.462 0.014-8.074 3.634-8.074 8.098 0 0 0 0 0 0v0c0 0.64 0.074 1.255 0.197 1.822-6.73-0.334-12.651-3.537-16.607-8.401l-0.033-0.042c-0.689 1.206-1.108 2.609-1.108 4.086 0 2.806 1.452 5.268 3.594 6.72-1.305-0.025-2.585-0.418-3.643-1.009v0.098c0 3.914 2.782 7.188 6.449 7.926-0.64 0.172-1.354 0.271-2.117 0.271-0.517 0-1.034-0.025-1.526-0.148 1.058 3.2 4.012 5.563 7.557 5.637-2.757 2.142-6.252 3.446-10.018 3.446-0.665 0-1.305-0.025-1.92-0.123 3.569 2.314 7.803 3.618 12.382 3.618 14.843 0 22.966-12.308 22.966-22.966 0-0.345 0-0.689-0.025-1.034 1.6-1.157 2.954-2.56 4.062-4.209z"></path>
        </symbol>
        <symbol id="icon-facebook" viewBox="0 0 16 32">
            <path d="M11.32 5.3h2.92v-5.080c-0.5-0.080-2.24-0.24-4.26-0.24-4.2 0-7.1 2.66-7.1 7.52v4.48h-4.64v5.7h4.64v14.3h5.7v-14.3h4.46l0.72-5.68h-5.18v-3.92c0-1.66 0.44-2.78 2.74-2.78z"></path>
        </symbol>
        <symbol id="icon-plate" viewBox="0 0 30 32">
            <path d="M29.27 22.095l-8.445-8.505 0.94-4.615c0.24 0.095 0.5 0.145 0.76 0.145h0.005c1.19 0.015 2.17-0.94 2.185-2.135 0-0.008 0-0.018 0-0.027 0-1.183-0.954-2.143-2.134-2.153h-0.001c-0.008-0-0.016-0-0.025-0-1.182 0-2.143 0.95-2.16 2.129l-0 0.002c0 0.255 0.040 0.51 0.125 0.75l-4.96 0.605-8.090-8.13c-0.1-0.105-0.235-0.16-0.375-0.16s-0.275 0.055-0.375 0.155l-1.51 1.5c-0.21 0.21-0.21 0.55 0 0.755l0.81 0.825c-3.15 5.8-2.125 12.98 2.52 17.665 0.045 0.040 0.095 0.075 0.145 0.095-0.030 0.18-0.050 0.365-0.050 0.55v6.185h-6.4c-1.472 0.004-2.664 1.198-2.665 2.67v1.065c0 0.295 0.235 0.535 0.53 0.535h24.535c0.295 0 0.535-0.24 0.535-0.535v-1.065c-0.003-1.473-1.197-2.667-2.67-2.67h-6.4v-2.74c1.005 0.21 2.025 0.315 3.050 0.32 2.46-0.005 4.875-0.615 7.040-1.785l0.82 0.825c0.1 0.1 0.235 0.155 0.375 0.16 0.14 0 0.275-0.060 0.375-0.155l1.51-1.505c0.21-0.21 0.21-0.545 0-0.755zM21.775 6.23c0.42-0.415 1.095-0.415 1.51 0.005 0.192 0.193 0.311 0.459 0.311 0.753 0 0.589-0.477 1.066-1.066 1.067h-0.005c-0.587-0.003-1.061-0.48-1.061-1.067 0-0.296 0.121-0.565 0.316-0.758l0-0h-0.005zM20.52 9.735l-0.595 2.945-1.175-1.18 1.77-1.765zM19.915 8.835l-1.92 1.905-1.485-1.49 3.405-0.415zM22.5 28.8c0.885 0 1.6 0.715 1.6 1.6v0.53h-23.465v-0.53c0-0.885 0.715-1.6 1.6-1.6h20.265zM15.035 26.665v1.065h-5.335v-1.065h5.335zM9.7 25.6v-4.055c0-1.295 1.2-2.345 2.67-2.345s2.665 1.050 2.665 2.345v4.055h-5.335zM16.1 23.9v-2.355c0-1.885-1.675-3.415-3.73-3.415-0.016-0-0.035-0-0.054-0-1.355 0-2.545 0.706-3.222 1.77l-0.009 0.015c-2.358-2.481-3.809-5.844-3.809-9.546 0-2.315 0.567-4.497 1.57-6.416l-0.036 0.076 18.6 18.71c-1.822 0.946-3.978 1.5-6.263 1.5-1.080 0-2.132-0.124-3.14-0.358l0.093 0.018zM27.39 23.22l-0.75-0.76-20.305-20.425 0.755-0.75 21.055 21.18-0.755 0.755z"></path>
        </symbol>
        <symbol id="icon-close-black" viewBox="0 0 32 32">
            <path d="M32 3.2l-3.24-3.2-12.76 12.76-12.8-12.76-3.2 3.2 12.76 12.8-12.76 12.76 3.2 3.24 12.8-12.8 12.76 12.8 3.24-3.24-12.8-12.76 12.8-12.8z"></path>
        </symbol>
        <symbol id="icon-phone" viewBox="0 0 24 32">
            <path d="M19.627 18.48l-2.453-0.28c-0.587-0.067-1.16 0.133-1.573 0.547l-1.787 1.773c-2.72-1.387-4.96-3.613-6.347-6.347l1.773-1.787c0.427-0.413 0.627-1 0.56-1.587l-0.28-2.427c-0.12-0.973-0.933-1.707-1.92-1.707h-1.667c-1.093 0-2 0.907-1.933 1.987 0.507 8.24 7.093 14.827 15.333 15.333 1.080 0.067 1.987-0.84 1.987-1.933v-1.667c0.013-0.973-0.72-1.787-1.693-1.907z"></path>
        </symbol>
        <symbol id="icon-name" viewBox="0 0 32 32">
            <path d="M16 16c2.933 0 5.333-2.4 5.333-5.333 0-2.951-2.4-5.333-5.333-5.333-2.951 0-5.333 2.382-5.333 5.333 0 2.933 2.382 5.333 5.333 5.333zM16 18.667c-3.573 0-10.667 1.778-10.667 5.333v1.333c0 0.729 0.587 1.333 1.333 1.333h18.667c0.729 0 1.333-0.604 1.333-1.333v-1.333c0-3.556-7.111-5.333-10.667-5.333z"></path>
        </symbol>
        <symbol id="icon-email" viewBox="0 0 24 32">
            <path d="M20 8h-16c-1.107 0-2 0.893-2 2v12c0 1.093 0.893 2 2 2h16c1.093 0 2-0.907 2-2v-12c0-1.107-0.907-2-2-2zM19.6 12.24l-7.080 4.427c-0.32 0.2-0.733 0.2-1.053 0l-7.067-4.427c-0.253-0.16-0.4-0.427-0.4-0.72 0-0.667 0.72-1.067 1.293-0.72l6.707 4.2 6.693-4.2c0.573-0.347 1.307 0.053 1.307 0.72 0 0.293-0.16 0.56-0.4 0.72z"></path>
        </symbol>
        <symbol id="icon-done" viewBox="0 0 40 32">
            <path d="M33.76 1c0.68-0.68 1.6-1.040 2.56-1 0.009-0 0.019-0 0.029-0 0.987 0 1.881 0.397 2.532 1.040l-0-0c0.68 0.68 1.080 1.6 1.080 2.56 0.040 0.96-0.32 1.88-0.96 2.6l-19.56 24.6c-0.36 0.36-0.76 0.64-1.2 0.84-0.44 0.24-0.92 0.32-1.44 0.32-0.046 0.002-0.1 0.003-0.154 0.003-0.463 0-0.905-0.089-1.31-0.252l0.024 0.008c-0.44-0.2-0.88-0.48-1.24-0.84l-12.96-13.040c-0.364-0.331-0.66-0.73-0.87-1.177l-0.010-0.023c-0.177-0.409-0.28-0.884-0.28-1.384 0-0.020 0-0.039 0-0.059l-0 0.003c-0.002-0.046-0.003-0.1-0.003-0.154 0-0.463 0.089-0.905 0.252-1.31l-0.008 0.024c0.2-0.48 0.48-0.88 0.8-1.24 0.36-0.36 0.8-0.64 1.24-0.8 0.412-0.178 0.891-0.281 1.394-0.281 0.539 0 1.049 0.118 1.508 0.331l-0.022-0.009c0.44 0.2 0.84 0.48 1.2 0.84l10.28 10.32 17.040-21.8c0-0.040 0.040-0.080 0.080-0.12z"></path>
        </symbol>
        <symbol id="icon-send" viewBox="0 0 38 32">
            <path d="M38.4 0l-38.4 18 12.256 3.776 18.944-14.784-14.4 16.192v8.816l6.88-6.704 8.72 2.704 6-28z"></path>
        </symbol>
        <symbol id="icon-solid_menu" viewBox="0 0 32 32">
            <path d="M4.787 8c0-0.427 0.173-0.84 0.48-1.133 0.293-0.307 0.707-0.467 1.12-0.467h19.2c0.427 0 0.84 0.16 1.133 0.467 0.307 0.293 0.467 0.707 0.467 1.133 0 0.413-0.16 0.827-0.467 1.12-0.293 0.307-0.707 0.48-1.133 0.48h-19.2c-0.413 0-0.827-0.173-1.12-0.48-0.307-0.293-0.48-0.707-0.48-1.12zM4.787 16c0-0.427 0.173-0.84 0.48-1.133 0.293-0.307 0.707-0.467 1.12-0.467h19.2c0.427 0 0.84 0.16 1.133 0.467 0.307 0.293 0.467 0.707 0.467 1.133 0 0.413-0.16 0.827-0.467 1.12-0.293 0.307-0.707 0.48-1.133 0.48h-19.2c-0.413 0-0.827-0.173-1.12-0.48-0.307-0.293-0.48-0.707-0.48-1.12zM4.787 24c0-0.427 0.173-0.84 0.48-1.133 0.293-0.307 0.707-0.467 1.12-0.467h19.2c0.427 0 0.84 0.16 1.133 0.467 0.307 0.293 0.467 0.707 0.467 1.133 0 0.413-0.16 0.827-0.467 1.12-0.293 0.307-0.707 0.48-1.133 0.48h-19.2c-0.413 0-0.827-0.173-1.12-0.48-0.307-0.293-0.48-0.707-0.48-1.12z"></path>
        </symbol>
    </defs>
</svg>
